<mxfile host="drawio-plugin" modified="2023-03-06T08:38:42.198Z" agent="5.0 (Windows NT 6.2; Win64; x64) AppleWebKit/537.36 (KHTML, like Gecko) Chrome/104.0.5112.102 Safari/537.36" etag="YJtf0iSP_SLktLsKWSvr" version="20.5.3" type="embed"><diagram id="q8hOvQl7w7mSiIernywP" name="Page-1"><mxGraphModel dx="1600" dy="465" grid="1" gridSize="10" guides="1" tooltips="1" connect="1" arrows="1" fold="1" page="1" pageScale="1" pageWidth="850" pageHeight="1100" math="0" shadow="0"><root><mxCell id="0"/><mxCell id="1" parent="0"/><mxCell id="2" value="Class" style="rounded=0;whiteSpace=wrap;html=1;fillColor=#f5f5f5;fontColor=#333333;strokeColor=#666666;" parent="1" vertex="1"><mxGeometry x="-20" y="230" width="120" height="60" as="geometry"/></mxCell><mxCell id="3" value="" style="edgeStyle=elbowEdgeStyle;elbow=horizontal;endArrow=classic;html=1;rounded=0;exitX=1;exitY=0.5;exitDx=0;exitDy=0;" parent="1" source="2" edge="1"><mxGeometry width="50" height="50" relative="1" as="geometry"><mxPoint x="120" y="270" as="sourcePoint"/><mxPoint x="150" y="70" as="targetPoint"/><Array as="points"><mxPoint x="120" y="350"/><mxPoint x="120" y="110"/><mxPoint x="135" y="80"/></Array></mxGeometry></mxCell><mxCell id="4" value="ActivationFunction" style="swimlane;fontStyle=0;childLayout=stackLayout;horizontal=1;startSize=30;horizontalStack=0;resizeParent=1;resizeParentMax=0;resizeLast=0;collapsible=1;marginBottom=0;whiteSpace=wrap;html=1;fillColor=#dae8fc;strokeColor=#6c8ebf;" vertex="1" parent="1"><mxGeometry x="150" y="10" width="140" height="120" as="geometry"/></mxCell><mxCell id="5" value="TanH" style="text;strokeColor=none;fillColor=none;align=left;verticalAlign=middle;spacingLeft=4;spacingRight=4;overflow=hidden;points=[[0,0.5],[1,0.5]];portConstraint=eastwest;rotatable=0;whiteSpace=wrap;html=1;" vertex="1" parent="4"><mxGeometry y="30" width="140" height="30" as="geometry"/></mxCell><mxCell id="6" value="RELU" style="text;strokeColor=none;fillColor=none;align=left;verticalAlign=middle;spacingLeft=4;spacingRight=4;overflow=hidden;points=[[0,0.5],[1,0.5]];portConstraint=eastwest;rotatable=0;whiteSpace=wrap;html=1;" vertex="1" parent="4"><mxGeometry y="60" width="140" height="30" as="geometry"/></mxCell><mxCell id="7" value="SIGMOID" style="text;strokeColor=none;fillColor=none;align=left;verticalAlign=middle;spacingLeft=4;spacingRight=4;overflow=hidden;points=[[0,0.5],[1,0.5]];portConstraint=eastwest;rotatable=0;whiteSpace=wrap;html=1;" vertex="1" parent="4"><mxGeometry y="90" width="140" height="30" as="geometry"/></mxCell><mxCell id="8" value="" style="edgeStyle=elbowEdgeStyle;elbow=horizontal;endArrow=classic;html=1;rounded=0;entryX=0;entryY=0.5;entryDx=0;entryDy=0;" edge="1" parent="1" target="10"><mxGeometry width="50" height="50" relative="1" as="geometry"><mxPoint x="120" y="260" as="sourcePoint"/><mxPoint x="140" y="210" as="targetPoint"/><Array as="points"><mxPoint x="120" y="320"/><mxPoint x="120" y="250"/></Array></mxGeometry></mxCell><mxCell id="10" value="ErrorFunction" style="swimlane;fontStyle=0;childLayout=stackLayout;horizontal=1;startSize=26;fillColor=#dae8fc;horizontalStack=0;resizeParent=1;resizeParentMax=0;resizeLast=0;collapsible=1;marginBottom=0;html=1;strokeColor=#6c8ebf;" vertex="1" parent="1"><mxGeometry x="150" y="150" width="140" height="104" as="geometry"/></mxCell><mxCell id="12" value="MSE 均方误差" style="text;strokeColor=none;fillColor=none;align=left;verticalAlign=top;spacingLeft=4;spacingRight=4;overflow=hidden;rotatable=0;points=[[0,0.5],[1,0.5]];portConstraint=eastwest;whiteSpace=wrap;html=1;" vertex="1" parent="10"><mxGeometry y="26" width="140" height="26" as="geometry"/></mxCell><mxCell id="13" value="\" style="text;strokeColor=none;fillColor=none;align=left;verticalAlign=top;spacingLeft=4;spacingRight=4;overflow=hidden;rotatable=0;points=[[0,0.5],[1,0.5]];portConstraint=eastwest;whiteSpace=wrap;html=1;" vertex="1" parent="10"><mxGeometry y="52" width="140" height="26" as="geometry"/></mxCell><mxCell id="11" value="\" style="text;strokeColor=none;fillColor=none;align=left;verticalAlign=top;spacingLeft=4;spacingRight=4;overflow=hidden;rotatable=0;points=[[0,0.5],[1,0.5]];portConstraint=eastwest;whiteSpace=wrap;html=1;" vertex="1" parent="10"><mxGeometry y="78" width="140" height="26" as="geometry"/></mxCell><mxCell id="14" value="正则化" style="swimlane;fontStyle=0;childLayout=stackLayout;horizontal=1;startSize=26;fillColor=#dae8fc;horizontalStack=0;resizeParent=1;resizeParentMax=0;resizeLast=0;collapsible=1;marginBottom=0;html=1;strokeColor=#6c8ebf;" vertex="1" parent="1"><mxGeometry x="150" y="290" width="140" height="104" as="geometry"/></mxCell><mxCell id="15" value="&amp;nbsp;L1:稀疏模型" style="text;strokeColor=none;fillColor=none;align=left;verticalAlign=top;spacingLeft=4;spacingRight=4;overflow=hidden;rotatable=0;points=[[0,0.5],[1,0.5]];portConstraint=eastwest;whiteSpace=wrap;html=1;" vertex="1" parent="14"><mxGeometry y="26" width="140" height="26" as="geometry"/></mxCell><mxCell id="16" value="L2:防止过拟合" style="text;strokeColor=none;fillColor=none;align=left;verticalAlign=top;spacingLeft=4;spacingRight=4;overflow=hidden;rotatable=0;points=[[0,0.5],[1,0.5]];portConstraint=eastwest;whiteSpace=wrap;html=1;" vertex="1" parent="14"><mxGeometry y="52" width="140" height="26" as="geometry"/></mxCell><mxCell id="17" value="\" style="text;strokeColor=none;fillColor=none;align=left;verticalAlign=top;spacingLeft=4;spacingRight=4;overflow=hidden;rotatable=0;points=[[0,0.5],[1,0.5]];portConstraint=eastwest;whiteSpace=wrap;html=1;" vertex="1" parent="14"><mxGeometry y="78" width="140" height="26" as="geometry"/></mxCell><mxCell id="19" value="" style="edgeStyle=segmentEdgeStyle;endArrow=classic;html=1;rounded=0;entryX=0;entryY=0.5;entryDx=0;entryDy=0;" edge="1" parent="1" target="14"><mxGeometry width="50" height="50" relative="1" as="geometry"><mxPoint x="120" y="260" as="sourcePoint"/><mxPoint x="130" y="290" as="targetPoint"/><Array as="points"><mxPoint x="120" y="340"/><mxPoint x="150" y="340"/></Array></mxGeometry></mxCell></root></mxGraphModel></diagram></mxfile>